<!-- <svg xmlns="http://www.w3.org/2000/svg" viewBox="0 0 24 24"><path fill="currentColor" d="M16.066 8.995a.75.75 0 1 0-1.06-1.061L12 10.939L8.995 7.934a.75.75 0 1 0-1.06 1.06L10.938 12l-3.005 3.005a.75.75 0 0 0 1.06 1.06L12 13.06l3.005 3.006a.75.75 0 0 0 1.06-1.06L13.062 12z"/></svg> -->
<svg xmlns="http://www.w3.org/2000/svg" viewBox="0 0 24 24"><path fill="#660505" d="m12 13.4l-4.9 4.9q-.275.275-.7.275t-.7-.275t-.275-.7t.275-.7l4.9-4.9l-4.9-4.9q-.275-.275-.275-.7t.275-.7t.7-.275t.7.275l4.9 4.9l4.9-4.9q.275-.275.7-.275t.7.275t.275.7t-.275.7L13.4 12l4.9 4.9q.275.275.275.7t-.275.7t-.7.275t-.7-.275z"/></svg>