<svg viewBox="0 0 16 13" fill="none" xmlns="http://www.w3.org/2000/svg">
<path d="M1.19531 2.71631H14.8047V3.61133H1.19531V2.71631ZM2.50928 12.2632C1.84489 12.2632 1.34554 12.0981 1.01123 11.7681C0.681152 11.4422 0.516113 10.9535 0.516113 10.3018V2.54492C0.516113 1.889 0.681152 1.39811 1.01123 1.07227C1.34554 0.742188 1.84489 0.577148 2.50928 0.577148H13.4907C14.1593 0.577148 14.6587 0.742188 14.9888 1.07227C15.3188 1.40234 15.4839 1.89323 15.4839 2.54492V10.3018C15.4839 10.9535 15.3188 11.4422 14.9888 11.7681C14.6587 12.0981 14.1593 12.2632 13.4907 12.2632H2.50928ZM2.52197 11.2412H13.478C13.7912 11.2412 14.0324 11.1587 14.2017 10.9937C14.3752 10.8244 14.4619 10.5747 14.4619 10.2446V2.60205C14.4619 2.27197 14.3752 2.0223 14.2017 1.85303C14.0324 1.68376 13.7912 1.59912 13.478 1.59912H2.52197C2.20459 1.59912 1.96126 1.68376 1.79199 1.85303C1.62272 2.0223 1.53809 2.27197 1.53809 2.60205V10.2446C1.53809 10.5747 1.62272 10.8244 1.79199 10.9937C1.96126 11.1587 2.20459 11.2412 2.52197 11.2412ZM3.24561 9.68604V8.73389C3.24561 8.56885 3.29639 8.43555 3.39795 8.33398C3.50374 8.23242 3.64128 8.18164 3.81055 8.18164H12.2085C12.3778 8.18164 12.5132 8.23242 12.6147 8.33398C12.7205 8.43555 12.7734 8.56885 12.7734 8.73389V9.68604C12.7734 9.85107 12.7205 9.98438 12.6147 10.0859C12.5132 10.1875 12.3778 10.2383 12.2085 10.2383H3.81055C3.64128 10.2383 3.50374 10.1875 3.39795 10.0859C3.29639 9.98438 3.24561 9.85107 3.24561 9.68604Z" fill="#007AFF"/>
</svg>
